{"glyphs":{"0":{"ha":839,"x_min":0,"x_max":0,"o":"m 420 961 b 83 624 234 961 83 810 l 83 322 b 420 -15 83 136 234 -15 b 757 322 605 -15 757 136 l 757 624 b 420 961 757 810 605 961 z m 628 322 b 420 114 628 207 535 114 b 211 322 305 114 211 207 l 211 624 b 420 833 211 739 305 833 b 628 624 535 833 628 739 z "},"1":{"ha":479,"x_min":0,"x_max":0,"o":"m 187 944 l 57 944 l 57 815 l 187 815 b 263 739 229 815 263 781 l 263 1 l 391 1 l 391 739 b 187 944 391 852 299 944 z "},"2":{"ha":739,"x_min":0,"x_max":0,"o":"m 594 515 l 599 521 b 640 796 666 596 682 704 b 409 944 599 886 508 944 l 120 944 l 120 815 l 409 815 b 523 742 458 815 503 787 b 505 609 544 698 536 646 l 121 267 b 69 153 88 238 69 197 b 222 0 69 69 138 0 l 633 0 l 633 129 l 222 129 b 198 153 209 129 198 140 b 206 171 198 160 201 167 z "},"3":{"ha":761,"x_min":0,"x_max":0,"o":"m 666 746 l 659 769 b 416 944 624 873 526 944 l 80 944 l 80 815 l 416 815 b 537 728 471 815 519 780 l 544 706 b 542 619 554 677 553 647 l 505 525 b 424 538 479 534 452 538 l 80 538 l 80 410 l 424 410 b 542 329 476 410 523 378 b 544 243 553 302 554 271 l 537 220 b 416 133 519 168 471 133 l 80 133 l 80 5 l 416 5 b 659 180 526 5 624 75 l 666 202 b 662 376 685 259 683 321 b 615 453 650 405 634 431 l 662 572 b 666 746 683 628 685 689 z "},"4":{"ha":771,"x_min":0,"x_max":0,"o":"m 553 673 b 378 467 553 542 489 467 b 203 673 239 467 203 509 l 203 946 l 75 946 l 75 673 b 378 338 75 517 109 338 b 553 391 446 338 505 357 l 553 2 l 681 2 l 681 946 l 553 946 z "},"5":{"ha":763,"x_min":0,"x_max":0,"o":"m 457 617 l 208 617 l 208 735 b 289 815 208 779 245 815 l 633 815 l 633 944 l 289 944 b 80 734 174 944 80 850 l 80 488 l 457 488 b 554 391 511 488 554 445 l 554 230 b 525 161 554 204 544 179 b 454 133 506 142 481 133 l 117 133 l 117 5 l 452 5 b 457 5 454 5 456 5 b 614 68 516 5 572 27 b 682 230 658 111 682 169 l 682 391 b 457 617 682 516 581 617 z "},"6":{"ha":807,"x_min":0,"x_max":0,"o":"m 436 618 l 383 618 b 215 566 320 618 263 598 l 215 716 b 296 797 215 760 251 797 l 576 797 l 576 925 l 296 925 b 87 716 180 925 87 831 l 85 328 b 85 320 85 325 85 323 l 85 257 b 383 -41 85 92 219 -41 l 436 -41 b 733 256 600 -41 733 92 l 733 320 b 436 618 733 484 600 618 z m 605 256 b 436 87 605 163 529 87 l 383 87 b 214 256 290 87 214 163 l 214 268 l 214 324 b 383 489 216 415 291 489 l 436 489 b 605 320 529 489 605 413 z "},"7":{"ha":750,"x_min":0,"x_max":0,"o":"m 491 944 l 71 944 l 71 815 l 491 815 b 546 785 524 815 540 794 b 549 722 552 776 563 751 b 328 496 517 658 476 593 b 84 2 92 336 84 16 l 213 0 b 400 389 213 3 220 268 b 664 665 556 492 617 571 b 655 852 694 725 691 795 b 491 944 620 910 559 944 z "},"8":{"ha":808,"x_min":0,"x_max":0,"o":"m 615 479 b 691 663 662 526 691 591 l 691 705 b 431 965 691 849 575 965 l 377 965 b 117 705 233 965 117 849 l 117 663 b 193 479 117 591 146 526 b 80 259 124 430 80 350 l 80 255 b 352 -17 80 105 202 -17 l 456 -17 b 728 255 606 -17 728 105 l 728 259 b 615 479 728 350 683 430 z m 245 705 b 377 837 245 778 304 837 l 431 837 b 563 705 504 837 563 778 l 563 663 b 431 531 563 590 504 531 l 377 531 b 245 663 304 531 245 590 z m 600 255 b 456 111 600 176 535 111 l 352 111 b 208 255 273 111 208 176 l 208 259 b 352 403 208 338 273 403 l 456 403 b 600 259 535 403 600 338 z "},"9":{"ha":807,"x_min":0,"x_max":0,"o":"m 424 965 l 371 965 b 73 668 207 965 73 832 l 73 604 b 371 306 73 440 207 306 l 424 306 b 592 359 486 306 544 326 l 592 208 b 511 127 592 164 555 127 l 231 127 l 231 -1 l 511 -1 b 720 208 626 -1 720 93 l 721 596 b 721 604 721 599 721 601 l 721 668 b 424 965 721 832 588 965 z m 593 600 b 424 435 591 509 516 435 l 371 435 b 202 604 278 435 202 511 l 202 668 b 371 837 202 761 278 837 l 424 837 b 593 668 517 837 593 761 l 593 656 z "},"\u0000":{"ha":0,"x_min":0,"x_max":0,"o":""},"\n":{"ha":0,"x_min":0,"x_max":0,"o":""},"\r":{"ha":0,"x_min":0,"x_max":0,"o":""}," ":{"ha":292,"x_min":0,"x_max":0,"o":""},"!":{"ha":360,"x_min":0,"x_max":0,"o":"m 236 266 l 236 937 l 107 937 l 107 266 z m 184 7 b 250 98 227 14 257 55 b 159 164 243 141 202 171 b 93 73 115 157 86 116 b 184 7 100 29 141 0 z "},"#":{"ha":947,"x_min":0,"x_max":0,"o":"m 859 581 l 859 683 l 718 683 l 757 945 l 653 945 l 614 683 l 397 683 l 435 945 l 332 945 l 293 683 l 89 683 l 89 581 l 277 581 l 245 362 l 89 362 l 89 259 l 229 259 l 191 0 l 295 0 l 333 259 l 551 259 l 512 0 l 616 0 l 655 259 l 859 259 l 859 362 l 670 362 l 703 581 z m 349 362 l 381 581 l 599 581 l 566 362 z "},"$":{"ha":850,"x_min":0,"x_max":0,"o":"m 704 425 b 476 497 659 469 587 492 l 476 796 b 672 718 563 786 630 760 l 745 791 b 476 899 684 851 592 888 l 476 1048 l 374 1048 l 374 901 b 89 637 197 892 89 792 b 142 453 89 564 93 501 b 374 394 186 410 258 392 l 374 82 b 178 172 294 94 225 125 l 105 100 b 374 -21 171 34 266 -8 l 374 -158 l 476 -158 l 476 -25 b 653 19 550 -22 608 -7 b 761 221 702 47 761 105 l 761 230 b 704 425 761 296 761 370 z m 213 527 b 192 637 195 545 192 578 b 374 799 192 763 295 793 l 374 496 b 213 527 290 495 236 505 z m 658 221 b 602 108 658 149 626 122 b 476 78 573 91 530 81 l 476 394 b 633 352 555 390 608 376 b 658 230 657 328 658 290 l 658 221 z "},"&":{"ha":1063,"x_min":0,"x_max":0,"o":"m 752 312 l 883 516 l 796 571 l 684 397 l 645 446 b 549 528 618 479 586 507 l 535 537 l 546 548 b 610 709 587 592 610 649 b 373 946 610 840 504 946 b 136 709 243 946 136 840 b 195 553 136 652 157 597 l 205 542 l 193 534 b 89 338 128 490 89 417 l 89 237 b 326 0 89 106 195 0 l 422 0 b 620 107 501 0 575 40 l 693 221 l 843 35 l 974 35 z m 373 843 b 507 709 447 843 507 783 b 373 575 507 635 447 575 b 239 709 299 575 239 635 b 373 843 239 783 299 843 z m 533 163 b 422 103 509 125 467 103 l 326 103 b 192 237 252 103 192 163 l 192 338 b 326 472 192 412 252 472 l 376 472 b 565 382 450 472 519 439 l 626 306 z "},"'":{"ha":307,"x_min":0,"x_max":0,"o":"m 218 647 l 218 937 l 89 937 l 89 647 z "},"‘":{"ha":307,"x_min":0,"x_max":0,"o":"m 218 647 l 218 937 l 89 937 l 89 647 z "},"’":{"ha":307,"x_min":0,"x_max":0,"o":"m 218 647 l 218 937 l 89 937 l 89 647 z "},"(":{"ha":444,"x_min":0,"x_max":0,"o":"m 313 822 l 356 885 l 232 885 b 199 3 54 621 41 279 l 235 -60 l 353 -60 l 285 60 b 313 822 148 298 159 594 z "},")":{"ha":444,"x_min":0,"x_max":0,"o":"m 213 885 l 89 885 l 132 822 b 160 60 285 594 296 298 l 92 -60 l 210 -60 l 246 3 b 213 885 404 279 391 621 z "},"*":{"ha":686,"x_min":0,"x_max":0,"o":"m 388 729 l 390 920 l 300 921 l 298 730 l 117 791 l 89 706 l 270 645 l 156 492 l 228 438 l 342 592 l 453 436 l 526 488 l 415 644 l 597 701 l 570 786 z "},"+":{"ha":639,"x_min":0,"x_max":0,"o":"m 551 443 l 371 443 l 371 606 l 268 606 l 268 443 l 89 443 l 89 341 l 268 341 l 268 178 l 371 178 l 371 341 l 551 341 z "},",":{"ha":307,"x_min":0,"x_max":0,"o":"m 218 -139 l 218 151 l 89 151 l 89 -139 z "},"-":{"ha":553,"x_min":0,"x_max":0,"o":"m 463 297 l 463 425 l 89 425 l 89 297 z "},".":{"ha":338,"x_min":0,"x_max":0,"o":"m 169 6 b 248 85 212 6 248 42 b 169 165 248 129 212 165 b 89 85 125 165 89 129 b 169 6 89 42 125 6 z "},"/":{"ha":578,"x_min":0,"x_max":0,"o":"m 454 937 l 89 -8 l 227 -8 l 592 937 z "},":":{"ha":308,"x_min":0,"x_max":0,"o":"m 154 165 b 74 85 110 165 74 129 b 154 6 74 42 110 6 b 233 85 198 6 233 42 b 154 165 233 129 198 165 z m 154 488 b 233 568 198 488 233 524 b 154 647 233 611 198 647 b 74 568 110 647 74 611 b 154 488 74 524 110 488 z "},";":{"ha":338,"x_min":0,"x_max":0,"o":"m 233 -139 l 233 151 l 104 151 l 104 -139 z m 169 488 b 248 568 212 488 248 524 b 169 647 248 611 212 647 b 89 568 125 647 89 611 b 169 488 89 524 125 488 z "},"=":{"ha":551,"x_min":0,"x_max":0,"o":"m 463 321 l 89 321 l 89 218 l 463 218 z m 463 546 l 89 546 l 89 444 l 463 444 z "},"?":{"ha":772,"x_min":0,"x_max":0,"o":"m 497 274 l 497 309 b 566 457 497 367 523 421 b 683 704 640 517 683 607 l 683 707 b 442 955 683 844 575 955 l 330 955 b 89 707 197 955 89 844 l 89 662 l 217 662 l 217 707 b 330 826 217 773 268 826 l 442 826 b 554 707 504 826 554 773 l 554 704 b 485 557 554 646 529 592 b 369 309 411 496 369 406 l 369 274 z m 432 0 b 511 79 475 0 511 36 b 432 159 511 123 475 159 b 352 79 388 159 352 123 b 432 0 352 36 388 0 z "},"@":{"ha":1340,"x_min":0,"x_max":0,"o":"m 853 993 b 278 857 615 1025 416 978 b 89 402 154 748 89 591 b 656 -179 89 22 285 -179 l 656 -76 b 192 402 339 -76 192 76 b 345 779 192 561 245 691 b 840 892 461 880 632 919 b 1148 436 1059 862 1153 635 b 992 150 1145 304 1095 159 b 937 166 957 147 944 158 b 918 286 916 191 914 241 b 931 367 926 311 931 338 l 931 437 b 673 696 931 580 815 696 l 639 696 b 381 437 497 696 381 580 l 381 367 b 639 109 381 224 497 109 l 673 109 b 826 160 730 109 783 128 b 858 101 833 138 843 118 b 1001 48 881 73 924 41 b 1251 433 1145 60 1245 215 b 853 993 1257 676 1135 956 z m 673 211 l 639 211 b 484 367 554 211 484 281 l 484 437 b 639 593 484 523 554 593 l 673 593 b 828 437 759 593 828 523 l 828 373 b 817 308 825 361 820 337 b 673 211 793 251 738 211 z "},"A":{"ha":1017,"x_min":0,"x_max":0,"o":"m 662 842 b 510 948 639 905 578 948 b 358 842 442 948 381 905 l 70 53 l 51 0 l 191 0 l 283 252 l 737 252 l 829 0 l 969 0 l 946 62 z m 331 384 l 481 797 b 510 817 486 809 497 817 b 539 797 523 817 534 809 l 689 384 z "},"À":{"ha":1017,"x_min":0,"x_max":0,"o":"m 662 842 b 510 948 639 905 578 948 b 358 842 442 948 381 905 l 70 53 l 51 0 l 191 0 l 283 252 l 737 252 l 829 0 l 969 0 l 946 62 z m 331 384 l 481 797 b 510 817 486 809 497 817 b 539 797 523 817 534 809 l 689 384 z "},"Á":{"ha":1017,"x_min":0,"x_max":0,"o":"m 662 842 b 510 948 639 905 578 948 b 358 842 442 948 381 905 l 70 53 l 51 0 l 191 0 l 283 252 l 737 252 l 829 0 l 969 0 l 946 62 z m 331 384 l 481 797 b 510 817 486 809 497 817 b 539 797 523 817 534 809 l 689 384 z "},"Â":{"ha":1017,"x_min":0,"x_max":0,"o":"m 662 842 b 510 948 639 905 578 948 b 358 842 442 948 381 905 l 70 53 l 51 0 l 191 0 l 283 252 l 737 252 l 829 0 l 969 0 l 946 62 z m 331 384 l 481 797 b 510 817 486 809 497 817 b 539 797 523 817 534 809 l 689 384 z "},"Ã":{"ha":1017,"x_min":0,"x_max":0,"o":"m 662 842 b 510 948 639 905 578 948 b 358 842 442 948 381 905 l 70 53 l 51 0 l 191 0 l 283 252 l 737 252 l 829 0 l 969 0 l 946 62 z m 331 384 l 481 797 b 510 817 486 809 497 817 b 539 797 523 817 534 809 l 689 384 z "},"Ä":{"ha":1017,"x_min":0,"x_max":0,"o":"m 662 842 b 510 948 639 905 578 948 b 358 842 442 948 381 905 l 70 53 l 51 0 l 191 0 l 283 252 l 737 252 l 829 0 l 969 0 l 946 62 z m 331 384 l 481 797 b 510 817 486 809 497 817 b 539 797 523 817 534 809 l 689 384 z "},"Å":{"ha":1017,"x_min":0,"x_max":0,"o":"m 662 842 b 510 948 639 905 578 948 b 358 842 442 948 381 905 l 70 53 l 51 0 l 191 0 l 283 252 l 737 252 l 829 0 l 969 0 l 946 62 z m 331 384 l 481 797 b 510 817 486 809 497 817 b 539 797 523 817 534 809 l 689 384 z "},"B":{"ha":839,"x_min":0,"x_max":0,"o":"m 606 465 b 552 502 582 466 562 480 b 561 567 542 524 545 548 l 600 615 l 603 622 b 596 829 637 688 635 765 b 415 930 557 892 490 930 l 51 930 l 51 2 l 570 2 b 789 220 691 2 789 100 l 789 271 b 606 465 789 374 709 459 z m 658 221 b 570 133 658 172 618 133 l 182 133 l 182 799 l 415 799 b 484 760 444 799 469 785 b 489 687 497 737 499 711 l 459 650 b 432 449 412 593 402 516 b 598 333 461 382 525 338 b 658 271 632 332 658 304 z "},"C":{"ha":853,"x_min":0,"x_max":0,"o":"m 681 215 b 474 130 625 160 552 130 b 182 422 313 130 182 261 l 182 526 b 474 818 182 687 313 818 b 681 732 552 818 625 787 l 706 706 l 799 799 l 773 825 b 474 949 693 905 587 949 b 51 526 241 949 51 759 l 51 422 b 474 -1 51 188 241 -1 b 773 123 587 -1 693 43 l 802 151 l 709 244 l 681 215 z "},"Ç":{"ha":853,"x_min":0,"x_max":0,"o":"m 681 215 b 474 130 625 160 552 130 b 182 422 313 130 182 261 l 182 526 b 474 818 182 687 313 818 b 681 732 552 818 625 787 l 706 706 l 799 799 l 773 825 b 474 949 693 905 587 949 b 51 526 241 949 51 759 l 51 422 b 474 -1 51 188 241 -1 b 773 123 587 -1 693 43 l 802 151 l 709 244 l 681 215 z "},"D":{"ha":814,"x_min":0,"x_max":0,"o":"m 441 919 l 51 919 l 51 6 l 441 6 b 763 329 619 6 763 150 l 763 597 b 441 919 763 775 619 919 z m 632 329 b 441 137 632 223 546 137 l 182 137 l 182 788 l 441 788 b 632 597 546 788 632 702 z "},"E":{"ha":740,"x_min":0,"x_max":0,"o":"m 51 6 l 689 6 l 689 138 l 182 138 l 182 397 l 485 397 l 485 528 l 182 528 l 182 787 l 689 787 l 689 919 l 51 919 z "},"È":{"ha":740,"x_min":0,"x_max":0,"o":"m 51 6 l 689 6 l 689 138 l 182 138 l 182 397 l 485 397 l 485 528 l 182 528 l 182 787 l 689 787 l 689 919 l 51 919 z "},"Ê":{"ha":740,"x_min":0,"x_max":0,"o":"m 51 6 l 689 6 l 689 138 l 182 138 l 182 397 l 485 397 l 485 528 l 182 528 l 182 787 l 689 787 l 689 919 l 51 919 z "},"F":{"ha":650,"x_min":0,"x_max":0,"o":"m 51 731 l 51 0 l 182 0 l 182 454 l 466 454 l 466 585 l 182 585 l 182 731 b 248 797 182 768 212 797 l 645 797 l 645 929 l 248 929 b 51 731 139 929 51 840 z "},"G":{"ha":843,"x_min":0,"x_max":0,"o":"m 419 815 b 684 705 519 815 613 776 l 777 798 b 419 946 681 894 554 946 l 370 946 b 36 612 185 946 36 796 l 36 339 b 370 5 36 155 185 5 l 536 5 b 776 242 667 5 775 112 b 708 414 777 307 753 368 b 538 486 662 460 602 485 l 345 487 l 344 355 l 537 354 b 614 322 566 354 593 343 b 645 244 634 301 645 273 b 536 136 644 185 595 136 l 370 136 b 167 339 258 136 167 227 l 167 612 b 370 815 167 724 258 815 z "},"H":{"ha":813,"x_min":0,"x_max":0,"o":"m 630 531 l 182 531 l 182 929 l 51 929 l 51 0 l 182 0 l 182 399 l 630 399 l 630 0 l 761 0 l 761 929 l 630 929 z "},"I":{"ha":232,"x_min":0,"x_max":0,"o":"m 182 0 l 182 929 l 51 929 l 51 0 z "},"Ì":{"ha":232,"x_min":0,"x_max":0,"o":"m 182 0 l 182 929 l 51 929 l 51 0 z "},"Í":{"ha":232,"x_min":0,"x_max":0,"o":"m 182 0 l 182 929 l 51 929 l 51 0 z "},"Î":{"ha":232,"x_min":0,"x_max":0,"o":"m 182 0 l 182 929 l 51 929 l 51 0 z "},"Ï":{"ha":232,"x_min":0,"x_max":0,"o":"m 182 0 l 182 929 l 51 929 l 51 0 z "},"J":{"ha":464,"x_min":0,"x_max":0,"o":"m 282 797 l 282 201 b 213 132 282 163 251 132 l 51 132 l 51 0 l 213 0 b 413 201 323 0 413 90 l 413 928 l 118 928 l 118 797 z "},"K":{"ha":839,"x_min":0,"x_max":0,"o":"m 709 873 l 747 929 l 587 929 l 316 538 b 256 507 303 518 280 507 b 182 580 215 507 182 540 l 182 929 l 51 929 l 51 0 l 182 0 l 182 389 b 256 375 205 380 230 375 b 374 413 299 375 340 389 l 633 0 l 788 0 l 463 519 l 709 873 z "},"L":{"ha":618,"x_min":0,"x_max":0,"o":"m 182 200 l 182 928 l 51 928 l 51 200 b 250 1 51 90 140 1 l 567 1 l 567 132 l 250 132 b 182 200 213 132 182 162 z "},"M":{"ha":1001,"x_min":0,"x_max":0,"o":"m 733 947 b 537 751 625 947 537 859 b 499 714 537 730 520 714 l 481 714 b 444 751 460 714 444 730 b 247 947 444 859 355 947 b 51 751 139 947 51 859 l 51 0 l 182 0 l 182 751 b 247 816 182 787 211 816 b 312 751 283 816 312 787 b 481 582 312 658 388 582 l 499 582 b 668 751 592 582 668 658 b 733 816 668 787 697 816 l 754 816 b 819 751 790 816 819 787 l 819 0 l 951 0 l 951 751 b 754 947 951 859 863 947 z "},"N":{"ha":844,"x_min":0,"x_max":0,"o":"m 662 144 b 648 130 662 137 655 130 l 646 130 b 633 139 641 130 635 134 l 331 841 b 198 929 308 894 256 929 l 196 929 b 51 784 116 929 51 864 l 51 1 l 182 1 l 182 784 b 196 798 182 791 188 798 l 198 798 b 210 789 203 798 208 794 l 513 87 b 645 -1 536 33 588 -1 l 649 -1 b 793 144 728 0 793 65 l 793 929 l 662 929 z "},"Ñ":{"ha":844,"x_min":0,"x_max":0,"o":"m 662 144 b 648 130 662 137 655 130 l 646 130 b 633 139 641 130 635 134 l 331 841 b 198 929 308 894 256 929 l 196 929 b 51 784 116 929 51 864 l 51 1 l 182 1 l 182 784 b 196 798 182 791 188 798 l 198 798 b 210 789 203 798 208 794 l 513 87 b 645 -1 536 33 588 -1 l 649 -1 b 793 144 728 0 793 65 l 793 929 l 662 929 z "},"O":{"ha":894,"x_min":0,"x_max":0,"o":"m 447 953 b 51 557 229 953 51 775 l 51 382 b 447 -14 51 163 229 -14 b 843 382 666 -14 843 163 l 843 557 b 447 953 843 775 666 953 z m 712 382 b 447 117 712 236 593 117 b 182 382 301 117 182 236 l 182 557 b 447 822 182 703 301 822 b 712 557 593 822 712 703 l 712 382 z "},"Ò":{"ha":894,"x_min":0,"x_max":0,"o":"m 447 953 b 51 557 229 953 51 775 l 51 382 b 447 -14 51 163 229 -14 b 843 382 666 -14 843 163 l 843 557 b 447 953 843 775 666 953 z m 712 382 b 447 117 712 236 593 117 b 182 382 301 117 182 236 l 182 557 b 447 822 182 703 301 822 b 712 557 593 822 712 703 l 712 382 z "},"Ó":{"ha":894,"x_min":0,"x_max":0,"o":"m 447 953 b 51 557 229 953 51 775 l 51 382 b 447 -14 51 163 229 -14 b 843 382 666 -14 843 163 l 843 557 b 447 953 843 775 666 953 z m 712 382 b 447 117 712 236 593 117 b 182 382 301 117 182 236 l 182 557 b 447 822 182 703 301 822 b 712 557 593 822 712 703 l 712 382 z "},"Ô":{"ha":894,"x_min":0,"x_max":0,"o":"m 447 953 b 51 557 229 953 51 775 l 51 382 b 447 -14 51 163 229 -14 b 843 382 666 -14 843 163 l 843 557 b 447 953 843 775 666 953 z m 712 382 b 447 117 712 236 593 117 b 182 382 301 117 182 236 l 182 557 b 447 822 182 703 301 822 b 712 557 593 822 712 703 l 712 382 z "},"Õ":{"ha":894,"x_min":0,"x_max":0,"o":"m 447 953 b 51 557 229 953 51 775 l 51 382 b 447 -14 51 163 229 -14 b 843 382 666 -14 843 163 l 843 557 b 447 953 843 775 666 953 z m 712 382 b 447 117 712 236 593 117 b 182 382 301 117 182 236 l 182 557 b 447 822 182 703 301 822 b 712 557 593 822 712 703 l 712 382 z "},"Ö":{"ha":894,"x_min":0,"x_max":0,"o":"m 447 953 b 51 557 229 953 51 775 l 51 382 b 447 -14 51 163 229 -14 b 843 382 666 -14 843 163 l 843 557 b 447 953 843 775 666 953 z m 712 382 b 447 117 712 236 593 117 b 182 382 301 117 182 236 l 182 557 b 447 822 182 703 301 822 b 712 557 593 822 712 703 l 712 382 z "},"Ø":{"ha":894,"x_min":0,"x_max":0,"o":"m 447 953 b 51 557 229 953 51 775 l 51 382 b 447 -14 51 163 229 -14 b 843 382 666 -14 843 163 l 843 557 b 447 953 843 775 666 953 z m 712 382 b 447 117 712 236 593 117 b 182 382 301 117 182 236 l 182 557 b 447 822 182 703 301 822 b 712 557 593 822 712 703 l 712 382 z "},"P":{"ha":799,"x_min":0,"x_max":0,"o":"m 547 926 l 51 926 l 51 0 l 182 0 l 182 275 b 237 366 182 313 203 348 l 252 374 b 341 378 279 389 312 391 l 423 344 b 577 335 471 324 526 321 b 748 561 678 363 748 456 l 748 726 b 548 926 748 836 658 926 z m 617 561 b 541 461 617 515 585 474 b 473 466 519 455 495 457 l 391 500 b 301 518 362 512 331 518 b 190 490 262 518 224 508 l 182 486 l 182 795 l 547 795 b 617 726 586 795 617 764 z "},"Q":{"ha":1010,"x_min":0,"x_max":0,"o":"m 840 558 b 445 952 840 775 663 952 b 51 558 228 952 51 775 l 51 384 b 445 -11 51 166 228 -11 b 756 141 571 -11 684 49 b 866 58 796 119 833 91 l 959 151 b 819 256 917 193 870 228 b 840 384 832 296 840 339 z m 445 120 b 182 384 300 120 182 239 l 182 558 b 445 821 182 703 300 821 b 709 558 591 821 709 703 l 709 384 b 697 307 709 357 705 332 b 517 334 640 325 579 334 l 493 334 l 493 202 l 517 202 b 624 191 553 202 589 198 b 445 120 577 147 514 120 z "},"R":{"ha":811,"x_min":0,"x_max":0,"o":"m 577 335 b 748 561 678 363 748 456 l 748 726 b 547 926 748 836 658 926 l 51 926 l 51 0 l 182 0 l 182 275 b 237 366 182 313 203 348 l 252 374 b 341 378 279 389 312 391 l 400 354 l 604 0 l 760 0 l 568 333 b 577 335 571 334 574 334 z m 301 518 b 190 490 262 518 224 508 l 182 486 l 182 795 l 547 795 b 617 726 586 795 617 764 l 617 561 b 541 461 617 515 585 474 b 473 466 519 455 495 457 l 391 500 b 301 518 362 512 331 518 z "},"S":{"ha":871,"x_min":0,"x_max":0,"o":"m 425 821 b 758 734 630 821 745 743 l 834 841 b 425 952 808 860 666 952 b 96 671 222 952 96 844 b 409 412 96 460 275 422 b 669 252 669 394 669 315 b 466 122 669 188 653 125 b 124 208 262 118 126 208 l 51 100 b 454 -10 58 95 215 -10 b 468 -10 459 -10 464 -10 b 800 252 689 -6 801 82 b 418 544 800 437 686 524 b 228 671 228 557 228 620 b 425 821 228 795 335 821 z "},"T":{"ha":872,"x_min":0,"x_max":0,"o":"m 51 926 l 51 795 l 364 795 l 364 0 l 495 0 l 495 795 l 821 795 l 821 926 z "},"U":{"ha":814,"x_min":0,"x_max":0,"o":"m 631 266 b 499 135 631 194 572 135 l 314 135 b 182 266 241 135 182 194 l 182 927 l 51 927 l 51 266 b 314 4 51 121 169 4 l 499 4 b 762 266 644 4 762 121 l 762 927 l 631 927 l 631 266 z "},"Ù":{"ha":814,"x_min":0,"x_max":0,"o":"m 631 266 b 499 135 631 194 572 135 l 314 135 b 182 266 241 135 182 194 l 182 927 l 51 927 l 51 266 b 314 4 51 121 169 4 l 499 4 b 762 266 644 4 762 121 l 762 927 l 631 927 l 631 266 z "},"Ú":{"ha":814,"x_min":0,"x_max":0,"o":"m 631 266 b 499 135 631 194 572 135 l 314 135 b 182 266 241 135 182 194 l 182 927 l 51 927 l 51 266 b 314 4 51 121 169 4 l 499 4 b 762 266 644 4 762 121 l 762 927 l 631 927 l 631 266 z "},"Û":{"ha":814,"x_min":0,"x_max":0,"o":"m 631 266 b 499 135 631 194 572 135 l 314 135 b 182 266 241 135 182 194 l 182 927 l 51 927 l 51 266 b 314 4 51 121 169 4 l 499 4 b 762 266 644 4 762 121 l 762 927 l 631 927 l 631 266 z "},"Ü":{"ha":814,"x_min":0,"x_max":0,"o":"m 631 266 b 499 135 631 194 572 135 l 314 135 b 182 266 241 135 182 194 l 182 927 l 51 927 l 51 266 b 314 4 51 121 169 4 l 499 4 b 762 266 644 4 762 121 l 762 927 l 631 927 l 631 266 z "},"V":{"ha":1011,"x_min":0,"x_max":0,"o":"m 550 126 b 505 94 543 107 525 94 b 461 126 485 94 468 107 l 189 913 l 51 913 l 337 83 b 505 -37 362 11 430 -37 b 674 83 581 -37 649 11 l 960 913 l 821 913 l 550 126 z "},"W":{"ha":1001,"x_min":0,"x_max":0,"o":"m 819 175 b 754 110 819 139 790 110 b 689 175 718 110 689 139 b 521 343 689 268 614 343 l 502 343 b 334 175 409 343 334 268 b 269 110 334 139 304 110 l 247 110 b 182 175 211 110 182 139 l 182 926 l 51 926 l 51 175 b 247 -21 51 67 139 -21 l 269 -21 b 465 175 377 -21 465 67 b 502 212 465 195 481 212 l 521 212 b 558 175 541 212 558 195 b 754 -21 558 67 646 -21 b 951 175 863 -21 951 67 l 951 926 l 819 926 z "},"X":{"ha":892,"x_min":0,"x_max":0,"o":"m 827 929 l 695 929 b 464 554 695 920 690 713 l 210 929 l 51 929 l 354 483 b 65 0 68 282 65 12 l 196 0 b 427 374 196 9 202 215 l 682 0 l 841 0 l 538 446 b 827 929 823 645 827 916 z "},"Y":{"ha":819,"x_min":0,"x_max":0,"o":"m 637 557 b 538 457 637 502 593 457 l 282 457 b 182 557 227 457 182 502 l 182 929 l 51 929 l 51 557 b 282 326 51 429 155 326 l 538 326 b 637 349 573 326 607 334 l 637 207 b 560 130 637 165 603 130 l 116 130 l 116 -1 l 560 -1 b 769 207 675 -1 769 92 l 769 929 l 637 929 z "},"Ý":{"ha":819,"x_min":0,"x_max":0,"o":"m 637 557 b 538 457 637 502 593 457 l 282 457 b 182 557 227 457 182 502 l 182 929 l 51 929 l 51 557 b 282 326 51 429 155 326 l 538 326 b 637 349 573 326 607 334 l 637 207 b 560 130 637 165 603 130 l 116 130 l 116 -1 l 560 -1 b 769 207 675 -1 769 92 l 769 929 l 637 929 z "},"Ÿ":{"ha":819,"x_min":0,"x_max":0,"o":"m 637 557 b 538 457 637 502 593 457 l 282 457 b 182 557 227 457 182 502 l 182 929 l 51 929 l 51 557 b 282 326 51 429 155 326 l 538 326 b 637 349 573 326 607 334 l 637 207 b 560 130 637 165 603 130 l 116 130 l 116 -1 l 560 -1 b 769 207 675 -1 769 92 l 769 929 l 637 929 z "},"Z":{"ha":892,"x_min":0,"x_max":0,"o":"m 182 203 b 236 284 182 238 203 270 l 708 487 b 841 689 788 521 841 601 b 621 909 841 810 742 909 l 116 909 l 116 777 l 621 777 b 709 689 670 777 709 738 b 656 607 709 653 688 621 l 184 405 b 51 203 103 370 51 291 b 271 -17 51 81 149 -17 l 775 -17 l 775 114 l 271 114 b 182 203 222 114 182 154 z "},"\\":{"ha":681,"x_min":0,"x_max":0,"o":"m 227 945 l 89 945 l 454 0 l 592 0 z "},"_":{"ha":551,"x_min":0,"x_max":0,"o":"m 463 0 l 463 103 l 89 103 l 89 0 z "},"a":{"ha":735,"x_min":0,"x_max":0,"o":"m 455 663 b 270 666 395 683 331 684 l 79 609 l 116 486 l 307 543 b 414 541 342 554 379 553 b 535 417 512 509 532 459 l 266 417 b 60 211 153 417 60 325 b 266 4 60 97 153 4 l 467 4 b 663 201 575 4 663 93 l 663 406 b 455 663 663 491 627 605 z m 535 201 b 467 133 535 163 504 133 l 266 133 b 188 211 223 133 188 168 b 266 289 188 254 223 289 l 535 289 z "},"à":{"ha":735,"x_min":0,"x_max":0,"o":"m 455 663 b 270 666 395 683 331 684 l 79 609 l 116 486 l 307 543 b 414 541 342 554 379 553 b 535 417 512 509 532 459 l 266 417 b 60 211 153 417 60 325 b 266 4 60 97 153 4 l 467 4 b 663 201 575 4 663 93 l 663 406 b 455 663 663 491 627 605 z m 535 201 b 467 133 535 163 504 133 l 266 133 b 188 211 223 133 188 168 b 266 289 188 254 223 289 l 535 289 z "},"á":{"ha":735,"x_min":0,"x_max":0,"o":"m 455 663 b 270 666 395 683 331 684 l 79 609 l 116 486 l 307 543 b 414 541 342 554 379 553 b 535 417 512 509 532 459 l 266 417 b 60 211 153 417 60 325 b 266 4 60 97 153 4 l 467 4 b 663 201 575 4 663 93 l 663 406 b 455 663 663 491 627 605 z m 535 201 b 467 133 535 163 504 133 l 266 133 b 188 211 223 133 188 168 b 266 289 188 254 223 289 l 535 289 z "},"â":{"ha":735,"x_min":0,"x_max":0,"o":"m 455 663 b 270 666 395 683 331 684 l 79 609 l 116 486 l 307 543 b 414 541 342 554 379 553 b 535 417 512 509 532 459 l 266 417 b 60 211 153 417 60 325 b 266 4 60 97 153 4 l 467 4 b 663 201 575 4 663 93 l 663 406 b 455 663 663 491 627 605 z m 535 201 b 467 133 535 163 504 133 l 266 133 b 188 211 223 133 188 168 b 266 289 188 254 223 289 l 535 289 z "},"ã":{"ha":735,"x_min":0,"x_max":0,"o":"m 455 663 b 270 666 395 683 331 684 l 79 609 l 116 486 l 307 543 b 414 541 342 554 379 553 b 535 417 512 509 532 459 l 266 417 b 60 211 153 417 60 325 b 266 4 60 97 153 4 l 467 4 b 663 201 575 4 663 93 l 663 406 b 455 663 663 491 627 605 z m 535 201 b 467 133 535 163 504 133 l 266 133 b 188 211 223 133 188 168 b 266 289 188 254 223 289 l 535 289 z "},"ä":{"ha":735,"x_min":0,"x_max":0,"o":"m 455 663 b 270 666 395 683 331 684 l 79 609 l 116 486 l 307 543 b 414 541 342 554 379 553 b 535 417 512 509 532 459 l 266 417 b 60 211 153 417 60 325 b 266 4 60 97 153 4 l 467 4 b 663 201 575 4 663 93 l 663 406 b 455 663 663 491 627 605 z m 535 201 b 467 133 535 163 504 133 l 266 133 b 188 211 223 133 188 168 b 266 289 188 254 223 289 l 535 289 z "},"å":{"ha":735,"x_min":0,"x_max":0,"o":"m 455 663 b 270 666 395 683 331 684 l 79 609 l 116 486 l 307 543 b 414 541 342 554 379 553 b 535 417 512 509 532 459 l 266 417 b 60 211 153 417 60 325 b 266 4 60 97 153 4 l 467 4 b 663 201 575 4 663 93 l 663 406 b 455 663 663 491 627 605 z m 535 201 b 467 133 535 163 504 133 l 266 133 b 188 211 223 133 188 168 b 266 289 188 254 223 289 l 535 289 z "},"b":{"ha":771,"x_min":0,"x_max":0,"o":"m 398 665 b 210 610 325 665 261 645 l 210 948 l 81 948 l 81 193 b 270 4 81 89 166 4 l 398 4 b 715 321 573 4 715 147 l 715 338 b 398 665 715 527 582 665 z m 586 321 b 398 133 586 217 502 133 l 270 133 b 210 193 237 133 210 160 l 210 338 b 398 537 210 462 280 537 b 586 338 511 537 586 457 z "},"c":{"ha":647,"x_min":0,"x_max":0,"o":"m 515 202 l 496 183 b 372 132 463 150 419 132 l 315 132 b 198 249 250 132 198 185 l 198 433 b 315 551 198 498 250 551 l 372 551 b 496 499 419 551 463 532 l 513 482 l 604 573 l 587 590 b 372 679 529 647 453 679 l 315 679 b 69 433 179 679 69 569 l 69 249 b 315 4 69 114 179 4 l 372 4 b 587 92 453 4 529 35 l 605 111 z "},"ç":{"ha":647,"x_min":0,"x_max":0,"o":"m 515 202 l 496 183 b 372 132 463 150 419 132 l 315 132 b 198 249 250 132 198 185 l 198 433 b 315 551 198 498 250 551 l 372 551 b 496 499 419 551 463 532 l 513 482 l 604 573 l 587 590 b 372 679 529 647 453 679 l 315 679 b 69 433 179 679 69 569 l 69 249 b 315 4 69 114 179 4 l 372 4 b 587 92 453 4 529 35 l 605 111 z "},"d":{"ha":771,"x_min":0,"x_max":0,"o":"m 561 948 l 561 610 b 373 665 510 645 446 665 b 56 338 189 665 56 527 l 56 321 b 373 4 56 147 198 4 l 497 4 b 690 197 603 4 690 91 l 690 948 z m 561 197 b 497 133 561 162 532 133 l 373 133 b 185 321 269 133 185 217 l 185 338 b 373 537 185 457 260 537 b 561 338 491 537 561 462 z "},"e":{"ha":690,"x_min":0,"x_max":0,"o":"m 441 233 b 661 453 562 233 661 332 b 485 667 661 556 587 647 b 267 669 413 682 339 683 l 253 666 b 75 451 149 646 75 556 l 75 193 b 265 2 75 88 160 2 l 572 2 l 572 131 l 265 131 b 203 193 231 131 203 158 l 203 233 l 441 233 z m 203 451 b 277 540 203 494 234 532 l 291 543 b 460 542 347 553 404 553 b 532 453 502 533 532 496 b 441 362 532 403 491 362 l 203 362 z "},"è":{"ha":690,"x_min":0,"x_max":0,"o":"m 441 233 b 661 453 562 233 661 332 b 485 667 661 556 587 647 b 267 669 413 682 339 683 l 253 666 b 75 451 149 646 75 556 l 75 193 b 265 2 75 88 160 2 l 572 2 l 572 131 l 265 131 b 203 193 231 131 203 158 l 203 233 l 441 233 z m 203 451 b 277 540 203 494 234 532 l 291 543 b 460 542 347 553 404 553 b 532 453 502 533 532 496 b 441 362 532 403 491 362 l 203 362 z "},"ê":{"ha":690,"x_min":0,"x_max":0,"o":"m 441 233 b 661 453 562 233 661 332 b 485 667 661 556 587 647 b 267 669 413 682 339 683 l 253 666 b 75 451 149 646 75 556 l 75 193 b 265 2 75 88 160 2 l 572 2 l 572 131 l 265 131 b 203 193 231 131 203 158 l 203 233 l 441 233 z m 203 451 b 277 540 203 494 234 532 l 291 543 b 460 542 347 553 404 553 b 532 453 502 533 532 496 b 441 362 532 403 491 362 l 203 362 z "},"f":{"ha":496,"x_min":0,"x_max":0,"o":"m 89 749 l 89 0 l 217 0 l 217 431 l 337 431 l 337 559 l 217 559 l 217 749 b 282 813 217 784 246 813 l 476 813 l 476 942 l 282 942 b 89 749 175 942 89 855 z "},"g":{"ha":746,"x_min":0,"x_max":0,"o":"m 381 679 b 65 373 204 679 65 545 l 65 243 b 319 -10 65 104 179 -10 l 378 -10 b 534 39 431 -10 487 8 l 534 -30 b 427 -177 534 -82 480 -156 b 328 -177 395 -190 360 -190 l 186 -119 l 137 -238 l 280 -296 b 378 -315 312 -309 345 -315 b 475 -296 411 -315 444 -309 b 663 -30 577 -255 663 -134 l 663 455 b 381 679 663 603 521 679 z m 534 258 b 378 119 534 183 449 119 l 319 119 b 194 243 250 119 194 174 l 194 373 b 381 551 194 475 274 551 b 534 455 442 551 534 526 z "},"h":{"ha":772,"x_min":0,"x_max":0,"o":"m 391 673 b 216 620 324 673 264 654 l 216 948 l 88 948 l 88 4 l 216 4 l 216 338 b 391 544 216 469 280 544 b 566 338 530 544 566 502 l 566 4 l 695 4 l 695 338 b 391 673 695 494 660 673 z "},"i":{"ha":303,"x_min":0,"x_max":0,"o":"m 216 4 l 216 654 l 87 654 l 87 4 z m 152 753 b 229 830 194 753 229 788 b 152 907 229 873 194 907 b 75 830 109 907 75 873 b 152 753 75 788 109 753 z "},"ì":{"ha":303,"x_min":0,"x_max":0,"o":"m 216 4 l 216 654 l 87 654 l 87 4 z m 152 753 b 229 830 194 753 229 788 b 152 907 229 873 194 907 b 75 830 109 907 75 873 b 152 753 75 788 109 753 z "},"í":{"ha":303,"x_min":0,"x_max":0,"o":"m 216 4 l 216 654 l 87 654 l 87 4 z m 152 753 b 229 830 194 753 229 788 b 152 907 229 873 194 907 b 75 830 109 907 75 873 b 152 753 75 788 109 753 z "},"î":{"ha":303,"x_min":0,"x_max":0,"o":"m 216 4 l 216 654 l 87 654 l 87 4 z m 152 753 b 229 830 194 753 229 788 b 152 907 229 873 194 907 b 75 830 109 907 75 873 b 152 753 75 788 109 753 z "},"ï":{"ha":303,"x_min":0,"x_max":0,"o":"m 216 4 l 216 654 l 87 654 l 87 4 z m 152 753 b 229 830 194 753 229 788 b 152 907 229 873 194 907 b 75 830 109 907 75 873 b 152 753 75 788 109 753 z "},"j":{"ha":307,"x_min":0,"x_max":0,"o":"m 89 -90 b 33 -146 89 -121 64 -146 l -23 -146 l -23 -275 l 33 -275 b 218 -90 135 -275 218 -192 l 218 658 l 89 658 z m 154 753 b 231 830 196 753 231 788 b 154 907 231 873 196 907 b 77 830 111 907 77 873 b 154 753 77 788 111 753 z "},"k":{"ha":739,"x_min":0,"x_max":0,"o":"m 483 390 l 662 600 l 712 658 l 543 658 l 356 439 b 290 409 340 420 315 409 b 216 482 249 409 216 442 l 216 948 l 88 948 l 88 4 l 216 4 l 216 294 b 290 280 239 285 264 280 b 385 303 323 280 356 288 l 554 3 l 701 3 l 657 81 l 483 390 z "},"l":{"ha":406,"x_min":0,"x_max":0,"o":"m 274 132 b 210 196 238 132 210 161 l 210 948 l 81 948 l 81 196 b 274 3 81 90 168 3 l 379 3 l 379 132 z "},"m":{"ha":997,"x_min":0,"x_max":0,"o":"m 758 668 l 738 675 b 581 671 687 692 631 691 b 516 632 557 661 535 648 l 416 671 b 259 675 366 691 310 692 l 239 668 b 81 449 145 637 81 549 l 81 3 l 210 3 l 210 449 b 280 547 210 494 238 533 l 300 553 b 369 551 322 561 347 560 l 444 522 b 434 456 438 501 434 479 l 434 3 l 563 3 l 563 456 b 628 551 563 498 588 536 b 698 553 650 560 675 561 l 717 547 b 788 449 759 533 788 494 l 788 3 l 916 3 l 916 449 b 758 668 916 549 852 637 z "},"n":{"ha":733,"x_min":0,"x_max":0,"o":"m 465 658 l 268 658 b 81 471 165 658 81 574 l 81 4 l 210 4 l 210 471 b 268 529 210 503 236 529 l 465 529 b 523 471 497 529 523 503 l 523 4 l 652 4 l 652 471 b 465 658 652 574 568 658 z "},"ñ":{"ha":733,"x_min":0,"x_max":0,"o":"m 465 658 l 268 658 b 81 471 165 658 81 574 l 81 4 l 210 4 l 210 471 b 268 529 210 503 236 529 l 465 529 b 523 471 497 529 523 503 l 523 4 l 652 4 l 652 471 b 465 658 652 574 568 658 z "},"o":{"ha":781,"x_min":0,"x_max":0,"o":"m 410 672 l 370 672 b 63 365 201 672 63 534 l 63 282 b 370 -26 63 112 201 -26 l 410 -26 b 717 282 579 -26 717 112 l 717 365 b 410 672 717 534 579 672 z m 589 282 b 410 103 589 183 509 103 l 370 103 b 191 282 272 103 191 183 l 191 365 b 370 544 191 464 272 544 l 410 544 b 589 365 509 544 589 464 z "},"ò":{"ha":781,"x_min":0,"x_max":0,"o":"m 410 672 l 370 672 b 63 365 201 672 63 534 l 63 282 b 370 -26 63 112 201 -26 l 410 -26 b 717 282 579 -26 717 112 l 717 365 b 410 672 717 534 579 672 z m 589 282 b 410 103 589 183 509 103 l 370 103 b 191 282 272 103 191 183 l 191 365 b 370 544 191 464 272 544 l 410 544 b 589 365 509 544 589 464 z "},"ó":{"ha":781,"x_min":0,"x_max":0,"o":"m 410 672 l 370 672 b 63 365 201 672 63 534 l 63 282 b 370 -26 63 112 201 -26 l 410 -26 b 717 282 579 -26 717 112 l 717 365 b 410 672 717 534 579 672 z m 589 282 b 410 103 589 183 509 103 l 370 103 b 191 282 272 103 191 183 l 191 365 b 370 544 191 464 272 544 l 410 544 b 589 365 509 544 589 464 z "},"ô":{"ha":781,"x_min":0,"x_max":0,"o":"m 410 672 l 370 672 b 63 365 201 672 63 534 l 63 282 b 370 -26 63 112 201 -26 l 410 -26 b 717 282 579 -26 717 112 l 717 365 b 410 672 717 534 579 672 z m 589 282 b 410 103 589 183 509 103 l 370 103 b 191 282 272 103 191 183 l 191 365 b 370 544 191 464 272 544 l 410 544 b 589 365 509 544 589 464 z "},"õ":{"ha":781,"x_min":0,"x_max":0,"o":"m 410 672 l 370 672 b 63 365 201 672 63 534 l 63 282 b 370 -26 63 112 201 -26 l 410 -26 b 717 282 579 -26 717 112 l 717 365 b 410 672 717 534 579 672 z m 589 282 b 410 103 589 183 509 103 l 370 103 b 191 282 272 103 191 183 l 191 365 b 370 544 191 464 272 544 l 410 544 b 589 365 509 544 589 464 z "},"ö":{"ha":781,"x_min":0,"x_max":0,"o":"m 410 672 l 370 672 b 63 365 201 672 63 534 l 63 282 b 370 -26 63 112 201 -26 l 410 -26 b 717 282 579 -26 717 112 l 717 365 b 410 672 717 534 579 672 z m 589 282 b 410 103 589 183 509 103 l 370 103 b 191 282 272 103 191 183 l 191 365 b 370 544 191 464 272 544 l 410 544 b 589 365 509 544 589 464 z "},"ø":{"ha":781,"x_min":0,"x_max":0,"o":"m 410 672 l 370 672 b 63 365 201 672 63 534 l 63 282 b 370 -26 63 112 201 -26 l 410 -26 b 717 282 579 -26 717 112 l 717 365 b 410 672 717 534 579 672 z m 589 282 b 410 103 589 183 509 103 l 370 103 b 191 282 272 103 191 183 l 191 365 b 370 544 191 464 272 544 l 410 544 b 589 365 509 544 589 464 z "},"p":{"ha":769,"x_min":0,"x_max":0,"o":"m 502 658 l 275 658 b 83 465 169 658 83 571 l 83 -276 l 211 -276 l 211 -53 b 253 84 211 9 216 75 l 258 85 b 317 76 278 92 300 88 l 372 36 b 542 7 420 1 484 -10 l 555 10 b 695 198 637 35 695 112 l 695 465 b 502 658 695 571 609 658 z m 567 198 b 518 134 567 168 547 142 l 506 130 b 447 140 486 124 464 128 l 393 179 b 278 217 359 204 319 217 b 220 208 258 217 239 214 b 211 205 217 207 214 206 l 211 465 b 275 529 211 500 240 529 l 502 529 b 567 465 538 529 567 500 z "},"q":{"ha":769,"x_min":0,"x_max":0,"o":"m 267 658 b 75 465 161 658 75 571 l 75 198 b 215 10 75 112 132 35 l 228 7 b 398 36 286 -10 349 1 l 452 76 b 512 85 469 88 492 92 l 516 84 b 559 -53 554 75 559 9 l 559 -276 l 687 -276 l 687 465 b 494 658 687 571 601 658 z m 559 205 b 549 208 556 206 553 207 b 377 179 491 226 426 216 l 322 140 b 264 130 306 128 284 124 l 251 134 b 203 198 223 142 203 168 l 203 465 b 267 529 203 500 232 529 l 494 529 b 559 465 530 529 559 500 z "},"r":{"ha":493,"x_min":0,"x_max":0,"o":"m 81 448 l 81 0 l 210 0 l 210 448 b 285 523 210 489 243 523 l 465 523 l 465 651 l 285 651 b 81 448 172 651 81 560 z "},"s":{"ha":689,"x_min":0,"x_max":0,"o":"m 326 401 b 203 467 203 409 203 441 b 330 549 203 534 272 549 b 564 493 448 549 533 513 l 635 600 b 330 677 616 613 509 677 b 75 467 175 677 75 595 b 318 272 75 289 258 276 b 491 184 491 261 491 220 b 360 115 491 157 491 117 b 119 172 216 113 120 171 l 51 63 b 352 -14 56 60 174 -14 b 362 -13 355 -14 358 -14 b 620 184 575 -10 620 96 b 326 401 620 358 463 391 z "},"t":{"ha":443,"x_min":0,"x_max":0,"o":"m 392 532 l 392 661 l 210 661 l 210 948 l 81 948 l 81 194 b 274 1 81 88 168 1 l 392 1 l 392 130 l 274 130 b 210 194 238 130 210 159 l 210 532 z "},"u":{"ha":738,"x_min":0,"x_max":0,"o":"m 529 659 l 529 225 b 428 124 529 169 484 124 l 310 124 b 208 225 254 124 208 169 l 208 659 l 80 659 l 80 225 b 310 -5 80 98 183 -5 l 428 -5 b 658 225 555 -5 658 98 l 658 659 z "},"ù":{"ha":738,"x_min":0,"x_max":0,"o":"m 529 659 l 529 225 b 428 124 529 169 484 124 l 310 124 b 208 225 254 124 208 169 l 208 659 l 80 659 l 80 225 b 310 -5 80 98 183 -5 l 428 -5 b 658 225 555 -5 658 98 l 658 659 z "},"ú":{"ha":738,"x_min":0,"x_max":0,"o":"m 529 659 l 529 225 b 428 124 529 169 484 124 l 310 124 b 208 225 254 124 208 169 l 208 659 l 80 659 l 80 225 b 310 -5 80 98 183 -5 l 428 -5 b 658 225 555 -5 658 98 l 658 659 z "},"û":{"ha":738,"x_min":0,"x_max":0,"o":"m 529 659 l 529 225 b 428 124 529 169 484 124 l 310 124 b 208 225 254 124 208 169 l 208 659 l 80 659 l 80 225 b 310 -5 80 98 183 -5 l 428 -5 b 658 225 555 -5 658 98 l 658 659 z "},"ü":{"ha":738,"x_min":0,"x_max":0,"o":"m 529 659 l 529 225 b 428 124 529 169 484 124 l 310 124 b 208 225 254 124 208 169 l 208 659 l 80 659 l 80 225 b 310 -5 80 98 183 -5 l 428 -5 b 658 225 555 -5 658 98 l 658 659 z "},"v":{"ha":735,"x_min":0,"x_max":0,"o":"m 574 658 l 391 141 b 367 125 387 132 378 125 b 344 141 357 125 347 132 l 161 658 l 24 658 l 42 608 l 223 98 b 367 -3 245 37 303 -3 b 512 98 432 -3 490 37 l 697 620 l 710 658 z "},"w":{"ha":997,"x_min":0,"x_max":0,"o":"m 788 658 l 788 212 b 717 114 788 167 759 128 l 698 108 b 628 110 675 100 650 101 l 553 139 b 563 205 559 160 563 182 l 563 658 l 434 658 l 434 205 b 369 110 434 163 409 125 b 300 108 347 101 322 100 l 280 114 b 210 212 238 128 210 167 l 210 658 l 81 658 l 81 212 b 239 -7 81 112 145 24 l 259 -14 b 332 -26 283 -22 307 -26 b 416 -10 361 -26 389 -21 b 482 29 441 0 462 13 l 581 -10 b 665 -26 608 -21 637 -26 b 738 -14 690 -26 715 -22 l 758 -7 b 916 212 852 24 916 112 l 916 658 z "},"x":{"ha":668,"x_min":0,"x_max":0,"o":"m 423 313 b 619 659 616 458 619 650 l 490 659 b 352 420 490 657 489 526 l 192 658 l 36 658 l 245 348 b 49 3 52 202 49 12 l 178 2 b 317 241 178 8 182 136 l 477 3 l 632 3 l 423 313 z "},"y":{"ha":746,"x_min":0,"x_max":0,"o":"m 528 659 l 528 233 b 427 132 528 177 482 132 l 308 132 b 207 233 252 132 207 177 l 207 659 l 79 659 l 79 233 b 308 3 79 106 182 3 l 427 3 b 528 27 463 3 497 12 l 528 -82 b 464 -154 528 -124 501 -154 l 279 -154 l 279 -283 l 464 -283 b 656 -82 572 -283 656 -194 l 656 659 z "},"ý":{"ha":746,"x_min":0,"x_max":0,"o":"m 528 659 l 528 233 b 427 132 528 177 482 132 l 308 132 b 207 233 252 132 207 177 l 207 659 l 79 659 l 79 233 b 308 3 79 106 182 3 l 427 3 b 528 27 463 3 497 12 l 528 -82 b 464 -154 528 -124 501 -154 l 279 -154 l 279 -283 l 464 -283 b 656 -82 572 -283 656 -194 l 656 659 z "},"ÿ":{"ha":746,"x_min":0,"x_max":0,"o":"m 528 659 l 528 233 b 427 132 528 177 482 132 l 308 132 b 207 233 252 132 207 177 l 207 659 l 79 659 l 79 233 b 308 3 79 106 182 3 l 427 3 b 528 27 463 3 497 12 l 528 -82 b 464 -154 528 -124 501 -154 l 279 -154 l 279 -283 l 464 -283 b 656 -82 572 -283 656 -194 l 656 659 z "},"z":{"ha":725,"x_min":0,"x_max":0,"o":"m 194 188 l 581 354 b 676 500 639 379 676 436 b 518 658 676 587 605 658 l 112 658 l 112 529 l 518 529 b 548 500 535 529 548 516 b 530 472 548 488 541 477 l 144 306 b 48 161 86 282 48 225 b 206 3 48 74 119 3 l 612 3 l 612 132 l 206 132 b 177 161 190 132 177 145 b 195 188 177 173 184 184 z "}," ":{"ha":346,"x_min":0,"x_max":0,"o":""},"­":{"ha":0,"x_min":0,"x_max":0,"o":""},"É":{"ha":817,"x_min":0,"x_max":0,"o":"m 563 1249 l 298 985 l 371 912 l 635 1177 z m 89 0 l 727 0 l 727 131 l 220 131 l 220 391 l 523 391 l 523 522 l 220 522 l 220 781 l 727 781 l 727 912 l 89 912 z "},"Ë":{"ha":817,"x_min":0,"x_max":0,"o":"m 89 0 l 727 0 l 727 131 l 220 131 l 220 391 l 523 391 l 523 522 l 220 522 l 220 781 l 727 781 l 727 912 l 89 912 z m 238 1099 b 317 1019 238 1055 273 1019 b 397 1099 361 1019 397 1055 b 317 1178 397 1143 361 1178 b 238 1099 273 1178 238 1143 z m 483 1099 b 562 1019 483 1055 518 1019 b 642 1099 606 1019 642 1055 b 562 1178 642 1143 606 1178 b 483 1099 518 1178 483 1143 z "},"é":{"ha":694,"x_min":0,"x_max":0,"o":"m 356 677 l 547 895 l 450 979 l 259 761 l 356 677 z m 675 450 b 500 665 675 554 601 644 b 281 667 428 680 354 680 l 267 664 b 89 449 164 644 89 554 l 89 190 b 280 0 89 85 175 0 l 587 0 l 587 128 l 280 128 b 218 190 245 128 218 156 l 218 231 l 456 231 b 675 450 577 231 675 330 z m 456 360 l 218 360 l 218 449 b 291 538 218 492 249 530 l 305 540 b 474 539 361 551 418 551 b 547 450 516 531 547 493 b 456 360 547 400 506 360 z "},"ë":{"ha":764,"x_min":0,"x_max":0,"o":"m 675 450 b 500 665 675 554 601 644 b 281 667 428 680 354 680 l 267 664 b 89 449 164 644 89 554 l 89 190 b 280 0 89 85 175 0 l 587 0 l 587 128 l 280 128 b 218 190 245 128 218 156 l 218 231 l 456 231 b 675 450 577 231 675 330 z m 456 360 l 218 360 l 218 449 b 291 538 218 492 249 530 l 305 540 b 474 539 361 551 418 551 b 547 450 516 531 547 493 b 456 360 547 400 506 360 z m 181 802 b 260 723 181 759 216 723 b 339 802 304 723 339 759 b 260 882 339 846 304 882 b 181 802 216 882 181 846 z m 425 802 b 505 723 425 759 461 723 b 584 802 549 723 584 759 b 505 882 584 846 549 882 b 425 802 461 882 425 846 z "},"€":{"ha":876,"x_min":0,"x_max":0,"o":"m 654 839 l 787 839 l 787 945 l 654 945 b 231 653 461 945 296 823 l 89 653 l 89 547 l 205 547 b 201 491 202 528 201 510 l 201 453 b 207 379 201 428 203 403 l 89 379 l 89 273 l 239 273 b 654 0 308 113 468 0 l 787 0 l 787 106 l 654 106 b 358 273 529 106 419 173 l 654 273 l 654 379 l 315 379 b 307 453 310 403 307 428 l 307 491 b 312 547 307 510 309 529 l 654 547 l 654 653 l 347 653 b 654 839 405 763 521 839 z "}}}
